<?xml version="1.0" standalone="no"?>
<!DOCTYPE svg PUBLIC "-//W3C//DTD SVG 20010904//EN"
 "http://www.w3.org/TR/2001/REC-SVG-20010904/DTD/svg10.dtd">
<svg version="1.0" xmlns="http://www.w3.org/2000/svg"
 width="1000.000000pt" height="250.000000pt" viewBox="0 0 1000.000000 250.000000"
 preserveAspectRatio="xMidYMid meet">

<g transform="translate(0.000000,250.000000) scale(0.100000,-0.100000)"
fill="#000000" stroke="none">
<path d="M50 2432 l0 -52 4955 0 4955 0 0 52 c0 49 -1 50 -18 35 -17 -16 -378
-17 -4937 -17 -4570 0 -4920 1 -4937 16 -17 16 -18 15 -18 -34z"/>
<path d="M1510 1893 c-146 -234 -275 -444 -288 -465 l-23 -38 292 2 293 3 101
162 100 162 623 1 622 0 0 300 0 300 -727 0 -728 0 -265 -427z m1700 127 l0
-290 -617 0 -618 0 -101 -163 -101 -162 -276 -3 -276 -2 266 427 c146 236 274
440 285 456 l19 27 710 0 709 0 0 -290z"/>
<path d="M2165 2033 c-17 -26 -22 -40 -14 -48 15 -15 477 -19 495 -4 17 14 18
61 2 77 -9 9 -75 12 -235 12 l-222 0 -26 -37z m475 -13 l0 -30 -240 0 c-132 0
-240 2 -240 5 0 3 7 17 16 30 l16 25 224 0 224 0 0 -30z"/>
<path d="M3370 1855 l0 -465 795 0 795 0 0 135 0 135 -505 0 -505 0 0 30 0 30
505 0 505 0 0 135 0 135 -505 0 -505 0 0 30 0 30 505 0 505 0 0 135 0 135
-795 0 -795 0 0 -465z m1580 335 l0 -120 -502 -2 -503 -3 -3 -39 c-2 -24 2
-42 10 -47 7 -5 235 -9 506 -9 l492 0 0 -120 0 -120 -506 0 -505 0 3 -42 3
-43 503 -3 502 -2 0 -120 0 -120 -785 0 -785 0 0 455 0 455 785 0 785 0 0
-120z"/>
<path d="M5100 1855 l0 -465 290 0 290 0 0 165 0 165 80 0 79 0 133 -165 133
-164 294 -1 293 0 -34 43 c-19 23 -78 96 -132 162 l-97 120 131 3 130 3 0 299
0 300 -795 0 -795 0 0 -465z m1580 165 l0 -290 -129 0 c-72 0 -132 -4 -135 -8
-3 -5 51 -78 119 -163 l125 -154 -267 -3 c-244 -2 -269 -1 -285 15 -9 10 -71
83 -136 163 l-118 145 -92 3 -92 3 0 -166 0 -165 -280 0 -280 0 0 455 0 455
785 0 785 0 0 -290z"/>
<path d="M5677 2064 c-14 -15 -7 -82 9 -88 24 -9 407 -7 422 3 8 5 12 23 10
47 l-3 39 -216 3 c-118 1 -218 -1 -222 -4z m433 -44 l0 -30 -215 0 -215 0 0
30 0 30 215 0 215 0 0 -30z"/>
<path d="M6840 1855 l0 -465 290 0 290 0 0 165 0 165 505 0 505 0 0 300 0 300
-795 0 -795 0 0 -465z m1580 165 l0 -290 -505 0 -505 0 0 -165 0 -165 -280 0
-280 0 0 455 0 455 785 0 785 0 0 -290z"/>
<path d="M7417 2064 c-14 -15 -7 -82 9 -88 24 -9 407 -7 422 3 8 5 12 23 10
47 l-3 39 -216 3 c-118 1 -218 -1 -222 -4z m433 -44 l0 -30 -215 0 -215 0 0
30 0 30 215 0 215 0 0 -30z"/>
<path d="M720 1183 c-6 -10 -78 -157 -159 -328 l-149 -310 41 -7 c23 -3 252
-7 509 -7 256 -1 473 -4 482 -7 9 -3 16 -12 16 -20 0 -12 -82 -14 -520 -14
-351 0 -527 -4 -543 -11 -16 -7 -36 -38 -62 -96 -21 -47 -48 -100 -60 -117
-12 -18 -24 -44 -27 -59 -5 -25 -3 -26 56 -32 34 -3 419 -5 857 -3 729 3 797
4 812 20 15 15 17 49 17 320 0 223 -3 307 -12 316 -9 9 -123 12 -450 12 -378
0 -438 2 -438 15 0 32 38 35 442 35 305 0 409 3 428 13 25 12 25 14 26 145 1
118 0 134 -17 142 -11 6 -254 10 -628 10 -571 0 -612 -1 -621 -17z m1230 -128
l0 -135 -437 -2 -437 -3 -19 -33 c-38 -64 -55 -62 443 -62 l450 0 0 -315 0
-315 -846 0 c-467 0 -844 4 -842 9 2 4 30 65 62 135 l59 126 546 2 546 3 0 40
0 40 -522 5 -523 5 152 318 152 317 608 0 608 0 0 -135z"/>
<path d="M2080 1051 l0 -148 38 -7 c20 -3 99 -6 174 -6 125 0 138 -2 148 -19
6 -13 10 -143 10 -354 l0 -334 38 -7 c20 -3 122 -6 225 -6 153 0 195 3 223 16
l34 16 0 332 c0 182 4 336 8 343 5 7 60 12 168 15 118 2 165 7 177 17 14 11
17 35 17 146 0 129 -1 133 -22 139 -13 3 -296 6 -630 6 l-608 0 0 -149z m1220
4 l0 -135 -182 -2 -183 -3 -3 -363 -2 -362 -235 0 -235 0 -2 363 -3 362 -182
3 -183 2 0 135 0 135 605 0 605 0 0 -135z"/>
<path d="M3440 691 l0 -510 43 -6 c23 -4 133 -5 243 -3 241 4 234 0 234 112 0
105 1 106 161 106 72 0 139 -5 150 -10 16 -9 19 -22 19 -93 0 -45 5 -89 10
-97 8 -13 47 -15 250 -15 203 0 242 2 250 15 15 24 13 983 -2 998 -9 9 -175
12 -685 12 l-673 0 0 -509z m1340 -1 l0 -500 -235 0 -234 0 -3 108 -3 107
-190 0 -190 0 -3 -107 -3 -108 -234 0 -235 0 0 500 0 500 665 0 665 0 0 -500z"/>
<path d="M3924 907 c-2 -7 -3 -60 -2 -118 l3 -104 193 -3 193 -2 -3 117 -3
118 -188 3 c-149 2 -189 0 -193 -11z m354 -30 c9 -10 16 -96 13 -159 -1 -16
-16 -18 -166 -18 l-165 0 0 83 c0 51 5 88 12 95 17 17 292 17 306 -1z"/>
<path d="M4910 1051 l0 -148 31 -7 c17 -3 91 -6 164 -6 74 0 140 -3 149 -6 14
-5 16 -45 16 -343 0 -194 4 -342 10 -351 8 -13 46 -15 243 -15 194 0 236 3
248 15 11 12 14 72 14 341 0 262 3 329 14 342 11 14 36 17 157 17 78 0 154 4
168 10 l26 10 0 129 c0 71 -3 136 -6 145 -6 14 -69 16 -620 16 l-614 0 0 -149z
m1220 4 l0 -135 -182 -2 -183 -3 -3 -363 -2 -362 -235 0 -235 0 -2 363 -3 362
-182 3 -183 2 0 135 0 135 605 0 605 0 0 -135z"/>
<path d="M6267 1194 c-11 -11 -8 -987 3 -1004 8 -13 45 -15 237 -15 125 0 236
3 246 7 16 7 17 38 15 510 l-3 503 -246 3 c-135 1 -248 -1 -252 -4z m483 -504
l0 -500 -235 0 -235 0 0 500 0 500 235 0 235 0 0 -500z"/>
<path d="M6880 691 l0 -508 31 -7 c41 -8 1257 -8 1298 0 l31 7 -2 506 -3 506
-677 3 -678 2 0 -509z m1340 -1 l0 -500 -665 0 -665 0 0 500 0 500 665 0 665
0 0 -500z"/>
<path d="M7365 907 c-3 -7 -4 -109 -3 -227 l3 -215 193 -3 192 -2 -2 227 -3
228 -188 3 c-146 2 -189 0 -192 -11z m355 -37 c7 -12 9 -86 8 -197 l-3 -178
-167 -3 -168 -2 0 188 c0 133 4 192 12 200 8 8 58 12 160 12 137 0 148 -1 158
-20z"/>
<path d="M8348 1193 c-16 -4 -18 -39 -20 -495 -3 -429 -1 -491 12 -496 8 -3
18 -10 22 -16 8 -13 353 -21 436 -11 l52 6 1 147 c0 81 3 165 7 187 l7 39 57
-64 c151 -172 238 -275 238 -282 0 -5 8 -8 18 -8 9 0 26 -7 36 -15 16 -12 59
-15 217 -15 108 0 217 3 243 6 l46 7 0 471 c0 259 -3 488 -6 509 l-7 37 -241
-1 c-132 -1 -252 -4 -266 -8 l-25 -7 -3 -169 c-2 -94 -4 -173 -5 -177 -1 -4
-72 75 -157 177 l-155 184 -245 -1 c-135 0 -253 -2 -262 -5z m642 -175 c171
-204 219 -258 231 -258 5 0 9 97 9 215 l0 215 235 0 235 0 0 -500 0 -500 -237
0 -238 0 -145 173 c-185 220 -220 258 -231 251 -5 -3 -9 -99 -9 -215 l0 -209
-235 0 -235 0 0 500 0 500 238 0 237 0 145 -172z"/>
<path d="M50 50 l0 -50 4955 0 4955 0 0 51 0 50 -33 -25 -34 -26 -4885 0
-4885 0 -37 25 -36 24 0 -49z"/>
</g>
</svg>
